# xmcd CD database file
#
# Track frame offsets:
#	182
#	16135
#	34062
#	50095
#	62970
#	105747
#	120090
#	133927
#	146852
#	171517
#	185945
#	199275
#	215122
#	234717
#	259045
#	277047
#
# Disc length: 3872 seconds
#
# Revision: 0
# Processed by: cddbd v1.5PL3 Copyright (c) Steve Scherf et al.
# Submitted via: CDex 1.50
#
DISCID=080f1e10
DTITLE=Champion Jack Dupree - Champion Jack Dupree
DYEAR=1998
DGENRE=Blues
TTITLE0=Get With It
TTITLE1=Bad Blood
TTITLE2=Dennis Rag
TTITLE3=I Had A Dream
TTITLE4=Poor Boy Blues
TTITLE5=Nasty Boogie
TTITLE6=New Vicksburg Blues
TTITLE7=How Long Blues
TTITLE8=Everything's Gonna Be Alright
TTITLE9=Junker's Blues
TTITLE10=Daybreak Stomp
TTITLE11=Slow Drag
TTITLE12=Evil Woman
TTITLE13=I'm Having Fun
TTITLE14=Stack-O-Lee
TTITLE15=Strollin' (Walkin' The Blues)
EXTD=YEAR: 1998
EXTT0=
EXTT1=
EXTT2=
EXTT3=
EXTT4=
EXTT5=
EXTT6=
EXTT7=
EXTT8=
EXTT9=
EXTT10=
EXTT11=
EXTT12=
EXTT13=
EXTT14=
EXTT15=
PLAYORDER=
